<svg id="_451eb490ec434c8" data-name="451eb490ec434c8" xmlns="http://www.w3.org/2000/svg" width="177.171" height="46.681" viewBox="0 0 177.171 46.681">
  <g id="Group_15" data-name="Group 15">
    <path id="Path_12" data-name="Path 12" d="M19.519,0H0V46.681Zm0,0" fill="#5f716d"/>
    <path id="Path_13" data-name="Path 13" d="M45.8,0H65.29V46.681Zm0,0" transform="translate(-12.543)" fill="#5f716d"/>
    <path id="Path_14" data-name="Path 14" d="M33.121,23.695,45.544,53.171H37.393L33.68,43.786H24.588Zm0,0" transform="translate(-6.734 -6.49)" fill="#5f716d"/>
  </g>
  <g id="Group_16" data-name="Group 16" transform="translate(68.28 8.361)">
    <path id="Path_15" data-name="Path 15" d="M110.347,33.66l2.3,6.6a.382.382,0,0,0,.394.242h4.425c.242,0,.28-.114.242-.356l-9.143-25.394c-.038-.2-.076-.242-.28-.242h-5.493c-.153,0-.242.114-.242.28a5.858,5.858,0,0,1-.356,2.136L94.045,40.107c-.038.28.051.394.28.394h3.955a.4.4,0,0,0,.445-.318L100.9,33.66Zm-8.189-4.311c1.2-3.611,2.772-8.24,3.408-10.885h.038c.788,2.772,2.645,8.266,3.484,10.885Zm0,0" transform="translate(-94.036 -12.335)" fill="#5f716d"/>
    <path id="Path_16" data-name="Path 16" d="M139.009,40.076a18.752,18.752,0,0,0,7.477-1.539.309.309,0,0,0,.242-.356c-.076-.712-.165-1.742-.165-2.531V11.744c0-.153,0-.229-.191-.229h-4.311c-.165,0-.242.076-.242.28v8.1a14.177,14.177,0,0,0-1.7-.114c-6.956,0-11.228,4.591-11.228,10.326,0,6.651,4.387,9.97,10.122,9.97Zm2.81-4.425a7.574,7.574,0,0,1-2.3.318c-3.154,0-5.735-1.78-5.735-6.1a5.8,5.8,0,0,1,6.18-6.091,5.14,5.14,0,0,1,1.857.28Zm0,0" transform="translate(-103.581 -11.515)" fill="#5f716d"/>
    <path id="Path_17" data-name="Path 17" d="M168.771,22.9c-5.938,0-9.613,4.552-9.613,10.173,0,5.023,2.925,10.122,9.524,10.122,5.582,0,9.5-4.107,9.5-10.249,0-5.417-3.319-10.046-9.41-10.046Zm-.242,3.993c3.357,0,4.781,2.887,4.781,6.18,0,4.069-2.1,6.091-4.54,6.091-3.014,0-4.794-2.531-4.794-6.18C163.977,29.231,165.871,26.891,168.529,26.891Zm0,0" transform="translate(-111.872 -14.633)" fill="#5f716d"/>
    <path id="Path_18" data-name="Path 18" d="M191.389,11.515a.249.249,0,0,0-.28.28v27.06a.417.417,0,0,0,.28.356,20.007,20.007,0,0,0,5.926.865c5.862,0,11.559-3.637,11.559-10.961a8.924,8.924,0,0,0-9.334-9.334,11.424,11.424,0,0,0-3.6.56l-.051-8.507c0-.28-.076-.318-.356-.318ZM204,29.6c0,4.387-3,6.447-6.244,6.447a6.276,6.276,0,0,1-1.818-.2V24.295a7.04,7.04,0,0,1,2.759-.445c3.128,0,5.3,1.984,5.3,5.748Zm0,0" transform="translate(-120.623 -11.515)" fill="#5f716d"/>
    <path id="Path_19" data-name="Path 19" d="M232.881,34.14a28.249,28.249,0,0,0,4.069-.165c.2-.038.28-.114.318-.28a12.011,12.011,0,0,0,.165-2.442c0-3.764-2.263-8.355-8.113-8.355-5.977,0-9.3,4.87-9.3,10.364,0,4.87,2.569,9.931,9.766,9.931a13.135,13.135,0,0,0,5.938-1.144.422.422,0,0,0,.229-.432V38.323c0-.191-.114-.229-.229-.153a12.422,12.422,0,0,1-4.908.954c-4.031,0-5.862-2.225-5.977-4.985Zm-8.037-3.408c.318-1.933,1.539-4.031,4.273-4.031a3.657,3.657,0,0,1,3.8,3.675v.318a20.2,20.2,0,0,1-2.174.038Zm0,0" transform="translate(-128.543 -14.633)" fill="#5f716d"/>
  </g>
</svg>