<svg xmlns="http://www.w3.org/2000/svg" width="176.976" height="55.231" viewBox="0 0 176.976 55.231">
  <path id="_338432063938426" data-name="338432063938426" d="M93.266,13.877a3.594,3.594,0,1,1-3.594-3.594A3.586,3.586,0,0,1,93.266,13.877ZM78.45,21.119V22a6.907,6.907,0,0,0-5.363-2.211A10.583,10.583,0,0,0,62.361,30.739,10.583,10.583,0,0,0,73.087,41.686a6.715,6.715,0,0,0,5.363-2.267v.94a.756.756,0,0,0,.774.774H83.7V20.345H79.224A.791.791,0,0,0,78.45,21.119Zm0,13.324a5.5,5.5,0,0,1-4.478,2.267c-3.538,0-6.247-2.211-6.247-5.971s2.709-5.971,6.247-5.971a5.647,5.647,0,0,1,4.478,2.267Zm8.569-14.1h5.307V41.133H87.019Zm79.281-.553A6.907,6.907,0,0,0,160.937,22V10.339h-5.307V41.133h4.478a.791.791,0,0,0,.774-.774v-.94h0a6.846,6.846,0,0,0,5.363,2.267A10.616,10.616,0,0,0,176.97,30.739,10.6,10.6,0,0,0,166.3,19.793Zm-.885,16.862a5.415,5.415,0,0,1-4.478-2.267V26.98a6,6,0,0,1,4.478-2.267c3.538,0,6.247,2.211,6.247,5.971S168.953,36.655,165.415,36.655ZM152.865,28.8V41.188h-5.308V29.412c0-3.428-1.106-4.81-4.091-4.81a5.935,5.935,0,0,0-4.312,2.046V41.133h-5.307V20.345h4.2a.791.791,0,0,1,.774.774V22a7.617,7.617,0,0,1,5.639-2.211,8.606,8.606,0,0,1,5.805,1.99C152.146,23.331,152.865,25.321,152.865,28.8Zm-31.9-9.012A6.907,6.907,0,0,0,115.6,22V10.339h-5.307V41.133h4.478a.791.791,0,0,0,.774-.774v-.94h0a6.846,6.846,0,0,0,5.363,2.267,10.616,10.616,0,0,0,10.726-10.947A10.538,10.538,0,0,0,120.965,19.793Zm-.885,16.862a5.415,5.415,0,0,1-4.478-2.267V26.98a6,6,0,0,1,4.478-2.267c3.538,0,6.247,2.211,6.247,5.971S123.619,36.655,120.08,36.655ZM105.706,19.793a8.463,8.463,0,0,1,2.433.276v4.92s-4.423-1.493-7.187,1.659v14.54H95.644V20.345h4.478a.791.791,0,0,1,.774.774V22A7.261,7.261,0,0,1,105.706,19.793ZM50.585,39.253c-.276-.663-.553-1.382-.829-1.99-.442-1-.885-1.935-1.272-2.82l-.055-.055C44.614,26.1,40.523,17.692,36.211,9.4l-.166-.332c-.442-.829-.885-1.714-1.327-2.6a15.892,15.892,0,0,0-1.99-3.041A8.929,8.929,0,0,0,25.706,0,9.279,9.279,0,0,0,18.63,3.317a19.059,19.059,0,0,0-1.99,3.041c-.442.885-.885,1.769-1.327,2.6l-.166.332c-4.257,8.293-8.4,16.7-12.218,24.989l-.055.111c-.387.885-.829,1.824-1.272,2.82q-.415.912-.829,1.99a12.419,12.419,0,0,0-.663,5.971A11.75,11.75,0,0,0,7.3,54.346a11.354,11.354,0,0,0,4.478.885,12.578,12.578,0,0,0,1.437-.111,14.607,14.607,0,0,0,5.529-1.88,28,28,0,0,0,6.856-5.75,29.051,29.051,0,0,0,6.856,5.75,14.607,14.607,0,0,0,5.529,1.88,12.578,12.578,0,0,0,1.437.111,11.164,11.164,0,0,0,4.478-.885,11.726,11.726,0,0,0,7.187-9.178A10.444,10.444,0,0,0,50.585,39.253ZM25.651,42.128c-2.985-3.759-4.92-7.3-5.584-10.283a8.918,8.918,0,0,1-.166-3.372,5.364,5.364,0,0,1,.885-2.322,5.869,5.869,0,0,1,4.865-2.433,5.661,5.661,0,0,1,4.865,2.433,5.364,5.364,0,0,1,.885,2.322,8.875,8.875,0,0,1-.166,3.372C30.572,34.775,28.637,38.313,25.651,42.128Zm22.059,2.6A8.216,8.216,0,0,1,42.679,51.2a8.371,8.371,0,0,1-4.2.553,10.872,10.872,0,0,1-4.2-1.437,25.816,25.816,0,0,1-6.3-5.363c3.649-4.478,5.86-8.569,6.69-12.218a13.857,13.857,0,0,0,.276-4.7,8.971,8.971,0,0,0-1.493-3.759,9.316,9.316,0,0,0-7.8-3.925,9.458,9.458,0,0,0-7.8,3.925,8.971,8.971,0,0,0-1.493,3.759,11.479,11.479,0,0,0,.276,4.7c.829,3.649,3.1,7.8,6.69,12.274a24.839,24.839,0,0,1-6.3,5.363,10.872,10.872,0,0,1-4.2,1.437,8.843,8.843,0,0,1-4.2-.553,8.216,8.216,0,0,1-5.031-6.469,9.152,9.152,0,0,1,.5-4.312c.166-.553.442-1.106.719-1.769.387-.885.829-1.824,1.272-2.764l.055-.111C9.95,27.588,14.041,19.184,18.3,11l.166-.332c.442-.829.885-1.714,1.327-2.543a12.144,12.144,0,0,1,1.548-2.433,5.8,5.8,0,0,1,8.846,0,12.144,12.144,0,0,1,1.548,2.433c.442.829.885,1.714,1.327,2.543l.166.332c4.2,8.238,8.293,16.641,12.108,24.879v.055c.442.885.829,1.88,1.272,2.764.276.663.553,1.216.719,1.769A9.342,9.342,0,0,1,47.71,44.727Z" transform="translate(0.006)" fill="#5f716d"/>
</svg>