<svg id="_937b312ac452484" data-name="937b312ac452484" xmlns="http://www.w3.org/2000/svg" width="143.943" height="47.302" viewBox="0 0 143.943 47.302">
  <path id="Path_6" data-name="Path 6" d="M225.061,38.244l4.006,2.671a11.7,11.7,0,0,1-9.787,5.2,11.487,11.487,0,0,1-11.649-11.737c0-6.993,5.025-11.738,11.087-11.738,6.1,0,9.084,4.85,10.051,7.468l.527,1.335-15.709,6.5A5.952,5.952,0,0,0,219.28,41.5a6.687,6.687,0,0,0,5.781-3.251ZM212.744,34.01l10.49-4.358a4.555,4.555,0,0,0-4.358-2.5,6.452,6.452,0,0,0-6.132,6.853Z" transform="translate(-85.353 -9.358)" fill="rgba(95,113,109,0.5)"/>
  <path id="Path_7" data-name="Path 7" d="M194.793,2.358h5.061V36.727h-5.061V2.358Z" transform="translate(-80.089 -1.04)" fill="rgba(95,113,109,0.5)"/>
  <path id="Path_8" data-name="Path 8" d="M169.032,23.543h4.885V44.417c0,8.662-5.113,12.229-11.158,12.229a11.18,11.18,0,0,1-10.4-6.94l4.481-1.863a6.505,6.505,0,0,0,5.921,4.182c3.883,0,6.273-2.407,6.273-6.905V43.433h-.176a8.062,8.062,0,0,1-6.185,2.671,11.623,11.623,0,0,1-11.246-11.7c0-6.624,5.377-11.79,11.246-11.79a8.189,8.189,0,0,1,6.185,2.618h.176V23.543Zm.351,10.859c0-4.147-2.759-7.169-6.273-7.169-3.549,0-6.537,3.022-6.537,7.169a6.734,6.734,0,0,0,6.537,7.063c3.514.018,6.273-2.97,6.273-7.063Z" transform="translate(-62.305 -9.345)" fill="rgba(95,113,109,0.5)"/>
  <path id="Path_9" data-name="Path 9" d="M88.018,34.277a11.737,11.737,0,0,1-23.475,0,11.737,11.737,0,1,1,23.475,0Zm-5.131,0c0-4.217-3.057-7.116-6.607-7.116s-6.607,2.9-6.607,7.116a6.625,6.625,0,1,0,13.214,0Z" transform="translate(-26.677 -9.309)" fill="rgba(95,113,109,0.5)"/>
  <path id="Path_10" data-name="Path 10" d="M131.474,34.379a11.737,11.737,0,0,1-23.475,0,11.737,11.737,0,1,1,23.475,0Zm-5.148,0c0-4.217-3.057-7.116-6.607-7.116s-6.607,2.9-6.607,7.116a6.625,6.625,0,1,0,13.214,0Z" transform="translate(-44.497 -9.358)" fill="rgba(95,113,109,0.5)"/>
  <path id="Path_11" data-name="Path 11" d="M18.928,31.734A13.132,13.132,0,0,1,5.8,18.433a13.132,13.132,0,0,1,13.126-13.3A12.769,12.769,0,0,1,27.942,8.7l3.532-3.532A17.426,17.426,0,0,0,18.928.124,18.57,18.57,0,0,0,.356,18.433,18.57,18.57,0,0,0,18.928,36.742,16.782,16.782,0,0,0,31.7,31.611c3.3-3.3,4.322-7.942,4.322-11.7a19.786,19.786,0,0,0-.3-3.286h-16.8v4.885H30.894a10.615,10.615,0,0,1-2.741,6.572,12.174,12.174,0,0,1-9.225,3.655Z" transform="translate(-0.356 -0.124)" fill="rgba(95,113,109,0.5)"/>
</svg>
