<svg xmlns="http://www.w3.org/2000/svg" width="136.096" height="36.781" viewBox="0 0 136.096 36.781">
  <path id="_8831c85b436247f" data-name="8831c85b436247f" d="M18.714,34.41c-2.047.36-4.131.467-6.286.754L5.855,15.912V35.991c-2.047.215-3.915.5-5.855.79V0H5.46l7.471,20.869V0h5.783V34.41Zm11.314-20.94c2.227,0,5.639-.108,7.687-.108v5.747c-2.55,0-5.531,0-7.687.108v8.549c3.376-.215,6.753-.5,10.165-.611v5.531L24.281,33.943V0H40.193V5.747H30.028ZM61.564,5.747H55.6V32.183c-1.94,0-3.879,0-5.747.072V5.747H43.893V0H61.565V5.747ZM70.9,13.074H78.77v5.747H70.9V31.86h-5.64V0H81.32V5.747H70.9v7.328ZM90.658,26.831c3.269.072,6.573.323,9.77.5v5.675c-5.136-.323-10.273-.646-15.517-.754V0h5.747V26.831ZM105.277,33.4c1.832.108,3.771.216,5.639.431V0h-5.639ZM136.1,0,128.8,17.492,136.1,36.781c-2.155-.287-4.31-.682-6.466-1.042L125.5,25.107l-4.2,9.77c-2.084-.36-4.1-.467-6.178-.755l7.4-16.846L115.838,0h6.178l3.771,9.662L129.81,0H136.1Z" fill="#5f716d"/>
</svg>
