<svg xmlns="http://www.w3.org/2000/svg" width="143.943" height="51.3" viewBox="0 0 143.943 51.3">
  <path id="cdf78f4eb16a484" d="M187.188,502.107a17.588,17.588,0,0,1-10.542-3.524,21.045,21.045,0,0,1-2.19-2.191,13.686,13.686,0,0,1-2.374-4.271c-1.553-4.65-.753-10.752,2.285-17.449,2.6-5.733,6.617-11.42,13.622-19.3,1.032-1.159,4.1-4.548,4.124-4.548s-.16.29-.371.643a41.282,41.282,0,0,0-4.229,9.755c-1.364,4.992-1.2,9.276.482,12.6a12.3,12.3,0,0,0,5.383,5.366c3.914,1.918,9.643,2.076,16.641.464.482-.112,24.354-6.449,53.05-14.083s52.178-13.876,52.182-13.871-66.669,28.538-101.282,43.34c-5.482,2.344-6.947,2.935-9.524,3.84C197.859,501.193,191.958,502.3,187.188,502.107Z" transform="translate(-171.31 -450.828)" fill="#5f716d"/>
</svg>
