<svg xmlns="http://www.w3.org/2000/svg" xmlns:xlink="http://www.w3.org/1999/xlink" width="80" height="80" viewBox="0 0 117 117">
  <defs>
    <clipPath id="clip-path">
      <circle id="Ellipse_1" data-name="Ellipse 1" cx="58.5" cy="58.5" r="58.5" transform="translate(886 130)" fill="#293e40"/>
    </clipPath>
  </defs>
  <g id="Mask_Group_7" data-name="Mask Group 7" transform="translate(-886 -130)" clip-path="url(#clip-path)">
    <g id="temp_formal-3132AE3231AE32_temp" transform="translate(884.078 127.989)">
      <path id="Path_21" data-name="Path 21" d="M60.415,119.011a15.048,15.048,0,0,1-12.634-6.888L9.448,52.822a15.053,15.053,0,1,1,25.286-16.34L60.415,76.233,81.357,43.862l.041-.07.014-.015,4.7-7.283A15.053,15.053,0,0,1,111.4,52.834L79.526,102.155h-.014a.06.06,0,0,0-.012.02.056.056,0,0,0,0,.024s-.015,0-.015.012l-.014.014-6.4,9.905a15.059,15.059,0,0,1-12.651,6.88Z" fill="#fff"/>
      <path id="Path_22" data-name="Path 22" d="M60.415,39.535A18.775,18.775,0,0,1,44.712,10.5h.014a.046.046,0,0,0,.014-.029,18.893,18.893,0,0,1,7.95-6.8.111.111,0,0,0,.043-.015h.015a18.5,18.5,0,0,1,7.665-1.645,18.749,18.749,0,0,1,12.89,32.371V34.4l-.027.029a18.734,18.734,0,0,1-9.214,4.742h-.029a17.992,17.992,0,0,1-3.621.367Z" fill="#fff"/>
    </g>
  </g>
</svg>
